<?xml version="1.0"?>
<svg xmlns="http://www.w3.org/2000/svg" xmlns:xlink="http://www.w3.org/1999/xlink" xmlns:svgjs="http://svgjs.com/svgjs" version="1.1" width="512" height="512" x="0" y="0" viewBox="0 0 506.051 506.051" style="enable-background:new 0 0 512 512" xml:space="preserve"><g>
<g xmlns="http://www.w3.org/2000/svg" id="XMLID_170_">
	<path id="XMLID_173_" d="M235.879,315.732c-6.771-53.324-49.143-95.696-102.467-102.467V15.989c0-8.284-6.716-15-15-15   s-15,6.716-15,15v197.276C50.089,220.036,7.717,262.409,0.946,315.732H235.879z" fill="#ffffff" data-original="#000000" style=""/>
	<path id="XMLID_174_" d="M0,345.732v6.245c0,20.402,16.598,37,37,37h162.825c20.401,0,37-16.598,37-37v-6.245H0z" fill="#ffffff" data-original="#000000" style=""/>
	<path id="XMLID_178_" d="M506.051,343.813V104.668c0-29.449-23.959-53.408-53.408-53.408h-118.93   c-29.449,0-53.408,23.959-53.408,53.408v239.146H506.051z M433.952,166.958c-6.468,5.175-15.908,4.125-21.084-2.344l-19.69-24.617   l-19.691,24.617c-2.963,3.703-7.323,5.631-11.724,5.631c-3.286,0-6.595-1.075-9.36-3.287c-6.469-5.176-7.519-14.614-2.344-21.084   l31.405-39.26c2.847-3.559,7.157-5.63,11.714-5.63c4.558,0,8.867,2.071,11.714,5.63l31.404,39.26   C441.471,152.344,440.421,161.783,433.952,166.958z M436.296,276.969l-31.404,39.26c-2.847,3.559-7.156,5.63-11.714,5.63   c-4.557,0-8.867-2.071-11.714-5.63l-31.405-39.26c-5.175-6.47-4.125-15.908,2.344-21.084c6.469-5.175,15.907-4.125,21.084,2.344   l19.691,24.617l19.69-24.617c5.176-6.469,14.612-7.518,21.084-2.344C440.421,261.06,441.471,270.499,436.296,276.969z    M424.582,224.957h-62.81c-8.284,0-15-6.716-15-15s6.716-15,15-15h62.81c8.284,0,15,6.716,15,15S432.866,224.957,424.582,224.957z" fill="#ffffff" data-original="#000000" style=""/>
	<path id="XMLID_183_" d="M280.305,373.813v27.534c0,29.449,23.959,53.408,53.408,53.408h118.93   c29.449,0,53.408-23.959,53.408-53.408v-27.534H280.305z M378.178,407.689c0-8.284,6.716-15,15-15s15,6.716,15,15v1.215   c0,8.284-6.716,15-15,15s-15-6.716-15-15V407.689z" fill="#ffffff" data-original="#000000" style=""/>
	<path id="XMLID_195_" d="M78.214,419.008c7.201,12.813,20.919,21.494,36.634,21.494h7.129c15.715,0,29.433-8.681,36.634-21.494   H78.214z" fill="#ffffff" data-original="#000000" style=""/>
	<path id="XMLID_197_" d="M118.412,461.604c-8.284,0-15,6.716-15,15v13.458c0,8.284,6.716,15,15,15s15-6.716,15-15v-13.458   C133.412,468.319,126.696,461.604,118.412,461.604z" fill="#ffffff" data-original="#000000" style=""/>
	<path id="XMLID_205_" d="M175.358,448.055c-5.064-6.558-14.482-7.768-21.04-2.706c-6.558,5.063-7.769,14.483-2.706,21.04   l8.232,10.662c2.956,3.828,7.396,5.834,11.884,5.834c3.201,0,6.427-1.021,9.156-3.128c6.558-5.063,7.769-14.483,2.706-21.04   L175.358,448.055z" fill="#ffffff" data-original="#000000" style=""/>
	<path id="XMLID_206_" d="M62.448,449.87l-9.069,9.958c-5.578,6.125-5.135,15.612,0.989,21.19c2.875,2.618,6.491,3.91,10.097,3.91   c4.074,0,8.134-1.65,11.094-4.899l9.069-9.958c5.578-6.125,5.135-15.612-0.989-21.19C77.515,443.304,68.027,443.745,62.448,449.87z   " fill="#ffffff" data-original="#000000" style=""/>
</g>















<script/></g></svg>
