<?xml version="1.0"?>
<svg xmlns="http://www.w3.org/2000/svg" xmlns:xlink="http://www.w3.org/1999/xlink" xmlns:svgjs="http://svgjs.com/svgjs" version="1.1" width="512" height="512" x="0" y="0" viewBox="0 0 64 64" style="enable-background:new 0 0 512 512" xml:space="preserve"><g><g xmlns="http://www.w3.org/2000/svg"><path d="m45 39.436c-1.681-1.604-3.647-2.819-5.801-3.598l-2.841 5.681-4.358-3.269-4.358 3.269-2.841-5.682c-2.154.779-4.12 1.995-5.801 3.598v3.565h26z" fill="#ffffff" data-original="#000000" style=""/><path d="m42 19h-1v6h1c1.654 0 3-1.346 3-3s-1.346-3-3-3z" fill="#ffffff" data-original="#000000" style=""/><path d="m37.251 35.262c-.329-.075-.658-.149-.993-.205l-2.591 1.943 1.975 1.481z" fill="#ffffff" data-original="#000000" style=""/><path d="m45 25.974c-.838.635-1.87 1.026-3 1.026h-1.08c-.371 2.574-2.143 4.695-4.519 5.567l.267.534c3.072.526 5.909 1.797 8.332 3.697z" fill="#ffffff" data-original="#000000" style=""/><path d="m27.599 32.567c-2.376-.872-4.148-2.993-4.519-5.567h-1.08c-1.13 0-2.162-.391-3-1.026v10.823c2.423-1.9 5.26-3.171 8.332-3.697z" fill="#ffffff" data-original="#000000" style=""/><path d="m22 25h1v-6h-1c-1.654 0-3 1.346-3 3s1.346 3 3 3z" fill="#ffffff" data-original="#000000" style=""/><path d="m26.749 35.262 1.609 3.219 1.975-1.481-2.591-1.943c-.335.055-.664.129-.993.205z" fill="#ffffff" data-original="#000000" style=""/><path d="m13 25v18h4v-18c0-1.103-.897-2-2-2s-2 .897-2 2z" fill="#ffffff" data-original="#000000" style=""/><path d="m51 25c0-1.103-.897-2-2-2s-2 .897-2 2v18h4z" fill="#ffffff" data-original="#000000" style=""/><path d="m3 61h58v-16h-58zm30-2h-2v-2h2zm4 0h-2v-2h2zm8 0h-2v-2h2zm10-11h3v3h-3zm0 5h3v5h-3zm-5-5h3v3h-3zm0 5h3v5h-3zm-11-5h7v6h-3v-3h-2v3h-2zm0 9h2v2h-2zm-9-9h7v6h-2v-3h-2v3h-3zm-8 0h4v4h-1v7h-2v-7h-1zm-8 6h1v-7h2v7h1v4h-4zm-8-6h4v4h-1v7h-2v-7h-1z" fill="#ffffff" data-original="#000000" style=""/><path d="m34.732 33.701-.36-.72c-.124.007-.246.019-.372.019h-4c-.126 0-.248-.012-.372-.019l-.36.72 2.732 2.049z" fill="#ffffff" data-original="#000000" style=""/><path d="m21 16c0-6.065 4.935-11 11-11s11 4.935 11 11v1.101c.743.152 1.416.482 2 .924v-2.025c0-7.168-5.832-13-13-13s-13 5.832-13 13v2.026c.584-.442 1.257-.773 2-.924z" fill="#ffffff" data-original="#000000" style=""/><path d="m30 31h4c2.757 0 5-2.243 5-5v-8c0-.551-.449-1-1-1h-5c-1.773 0-3.369-.773-4.468-2h-.532c-1.654 0-3 1.346-3 3v8c0 2.757 2.243 5 5 5zm6-12c.552 0 1 .448 1 1s-.448 1-1 1-1-.448-1-1 .448-1 1-1zm0 5c0 2.209-1.791 4-4 4s-4-1.791-4-4zm-8-5c.552 0 1 .448 1 1s-.448 1-1 1-1-.448-1-1 .448-1 1-1z" fill="#ffffff" data-original="#000000" style=""/><path d="m38.486 15.049c1.086.179 1.969.938 2.33 1.951h.184v-1c0-4.962-4.038-9-9-9s-9 4.038-9 9v1h.107c.424-2.073 2.128-3.685 4.251-3.959-.232-.637-.358-1.325-.358-2.041h2c0 1.823 1.233 3.348 2.904 3.828-.59-1.113-.904-2.361-.904-3.657v-.171h2v.171c0 1.424.513 2.767 1.441 3.829h1.562c-.651-1.157-1.003-2.465-1.003-3.829v-.171h2v.171c0 1.447.529 2.809 1.486 3.878z" fill="#ffffff" data-original="#000000" style=""/><path d="m8 27.539 3.659-8.539h5.341v-2h-6.659l-2.341 5.461-2.341-5.461h-4.659v2h3.341z" fill="#ffffff" data-original="#000000" style=""/><path d="m58.341 17-2.341 5.461-2.341-5.461h-6.659v2h5.341l3.659 8.539 3.659-8.539h3.341v-2z" fill="#ffffff" data-original="#000000" style=""/></g><script/></g></svg>
